<svg width="1470" height="1248" viewBox="0 0 1470 1248" fill="none" xmlns="http://www.w3.org/2000/svg">
<g filter="url(#filter0_d)">
<path d="M830.344 975H773.801V777.832H558.762V975H502.512V548.438H558.762V731.836H773.801V548.438H830.344V975Z" fill="white"/>
<path d="M830.344 975V976C830.896 976 831.344 975.552 831.344 975H830.344ZM773.801 975H772.801C772.801 975.552 773.249 976 773.801 976V975ZM773.801 777.832H774.801C774.801 777.28 774.353 776.832 773.801 776.832V777.832ZM558.762 777.832V776.832C558.209 776.832 557.762 777.28 557.762 777.832H558.762ZM558.762 975V976C559.314 976 559.762 975.552 559.762 975H558.762ZM502.512 975H501.512C501.512 975.552 501.959 976 502.512 976V975ZM502.512 548.438V547.438C501.959 547.438 501.512 547.885 501.512 548.438H502.512ZM558.762 548.438H559.762C559.762 547.885 559.314 547.438 558.762 547.438V548.438ZM558.762 731.836H557.762C557.762 732.388 558.209 732.836 558.762 732.836V731.836ZM773.801 731.836V732.836C774.353 732.836 774.801 732.388 774.801 731.836H773.801ZM773.801 548.438V547.438C773.249 547.438 772.801 547.885 772.801 548.438H773.801ZM830.344 548.438H831.344C831.344 547.885 830.896 547.438 830.344 547.438V548.438ZM830.344 974H773.801V976H830.344V974ZM774.801 975V777.832H772.801V975H774.801ZM773.801 776.832H558.762V778.832H773.801V776.832ZM557.762 777.832V975H559.762V777.832H557.762ZM558.762 974H502.512V976H558.762V974ZM503.512 975V548.438H501.512V975H503.512ZM502.512 549.438H558.762V547.438H502.512V549.438ZM557.762 548.438V731.836H559.762V548.438H557.762ZM558.762 732.836H773.801V730.836H558.762V732.836ZM774.801 731.836V548.438H772.801V731.836H774.801ZM773.801 549.438H830.344V547.438H773.801V549.438ZM829.344 548.438V975H831.344V548.438H829.344Z" fill="black"/>
<path d="M965.344 887H908.801V689.832H693.762V887H637.512V460.438H693.762V643.836H908.801V460.438H965.344V887Z" fill="white" fill-opacity="0.69"/>
<path d="M965.344 887V888C965.896 888 966.344 887.552 966.344 887H965.344ZM908.801 887H907.801C907.801 887.552 908.249 888 908.801 888V887ZM908.801 689.832H909.801C909.801 689.28 909.353 688.832 908.801 688.832V689.832ZM693.762 689.832V688.832C693.209 688.832 692.762 689.28 692.762 689.832H693.762ZM693.762 887V888C694.314 888 694.762 887.552 694.762 887H693.762ZM637.512 887H636.512C636.512 887.552 636.959 888 637.512 888V887ZM637.512 460.438V459.438C636.959 459.438 636.512 459.885 636.512 460.438H637.512ZM693.762 460.438H694.762C694.762 459.885 694.314 459.438 693.762 459.438V460.438ZM693.762 643.836H692.762C692.762 644.388 693.209 644.836 693.762 644.836V643.836ZM908.801 643.836V644.836C909.353 644.836 909.801 644.388 909.801 643.836H908.801ZM908.801 460.438V459.438C908.249 459.438 907.801 459.885 907.801 460.438H908.801ZM965.344 460.438H966.344C966.344 459.885 965.896 459.438 965.344 459.438V460.438ZM965.344 886H908.801V888H965.344V886ZM909.801 887V689.832H907.801V887H909.801ZM908.801 688.832H693.762V690.832H908.801V688.832ZM692.762 689.832V887H694.762V689.832H692.762ZM693.762 886H637.512V888H693.762V886ZM638.512 887V460.438H636.512V887H638.512ZM637.512 461.438H693.762V459.438H637.512V461.438ZM692.762 460.438V643.836H694.762V460.438H692.762ZM693.762 644.836H908.801V642.836H693.762V644.836ZM909.801 643.836V460.438H907.801V643.836H909.801ZM908.801 461.438H965.344V459.438H908.801V461.438ZM964.344 460.438V887H966.344V460.438H964.344Z" fill="black" fill-opacity="0.69"/>
</g>
<path d="M734.5 48L761.47 20.5252C746.49 5.82035 722.492 5.8256 707.518 20.537L734.5 48ZM163.5 609L136.518 581.537C125.366 592.494 121.947 609.106 127.866 623.576C133.785 638.046 147.866 647.5 163.5 647.5V609ZM1306 609V647.5C1321.64 647.5 1335.72 638.042 1341.64 623.568C1347.55 609.094 1344.13 592.479 1332.97 581.525L1306 609ZM1150 609V570.5C1128.74 570.5 1111.5 587.737 1111.5 609H1150ZM1150 1190V1228.5C1171.26 1228.5 1188.5 1211.26 1188.5 1190H1150ZM320 1190H281.5C281.5 1211.26 298.737 1228.5 320 1228.5V1190ZM320 609H358.5C358.5 587.737 341.263 570.5 320 570.5V609ZM707.518 20.537L136.518 581.537L190.482 636.463L761.482 75.463L707.518 20.537ZM1332.97 581.525L761.47 20.5252L707.53 75.4748L1279.03 636.475L1332.97 581.525ZM1150 647.5H1306V570.5H1150V647.5ZM1111.5 609V1190H1188.5V609H1111.5ZM1150 1151.5H320V1228.5H1150V1151.5ZM358.5 1190V609H281.5V1190H358.5ZM163.5 647.5H320V570.5H163.5V647.5Z" fill="white"/>
<defs>
<filter id="filter0_d" x="497.512" y="459.438" width="472.832" height="524.562" filterUnits="userSpaceOnUse" color-interpolation-filters="sRGB">
<feFlood flood-opacity="0" result="BackgroundImageFix"/>
<feColorMatrix in="SourceAlpha" type="matrix" values="0 0 0 0 0 0 0 0 0 0 0 0 0 0 0 0 0 0 127 0"/>
<feOffset dy="4"/>
<feGaussianBlur stdDeviation="2"/>
<feColorMatrix type="matrix" values="0 0 0 0 0 0 0 0 0 0 0 0 0 0 0 0 0 0 0.25 0"/>
<feBlend mode="normal" in2="BackgroundImageFix" result="effect1_dropShadow"/>
<feBlend mode="normal" in="SourceGraphic" in2="effect1_dropShadow" result="shape"/>
</filter>
</defs>
</svg>
